<svg xmlns="http://www.w3.org/2000/svg" width="200" height="200" viewBox="0 0 200 200"><g fill="none" fill-rule="evenodd"><rect width="200" height="200" fill="#E5FFF6"/><g fill="#0D6547" transform="translate(20 50)"><path fill-rule="nonzero" d="M149.775553 12.4150196C149.775553 12.5327765 149.775553 12.6799841 149.74561 12.7683133 149.595667 13.9165233 149.595667 15.0647333 149.685495 16.2423941 149.74561 16.5368093 149.805495 16.8312245 150.045495 17.0667612 150.43521 17.508361 151.034753 17.4200548 151.274753 16.8901029 151.394753 16.6251384 151.394753 16.360151 151.334638 16.0951865 151.034753 14.9764042 150.974867 13.7987664 150.944924 12.6505334 150.944924 12.591655 150.944924 12.5033258 150.944924 12.4150196 151.274753 12.3855689 151.574638 12.3561182 151.844353 12.3561182 152.05441 12.3266905 152.234296 12.2972398 152.384238 12.2089106 152.833838 11.9733969 152.833838 11.4728956 152.354067 11.2373589 152.174181 11.1490298 151.93441 11.1195791 151.724581 11.1195791 150.974867 11.1490298 150.225381 11.1490298 149.475667 11.1490298 149.205952 11.1490298 148.93601 11.1784805 148.666067 11.2079082 148.516124 11.2373589 148.336238 11.2373589 148.216467 11.325688 148.00641 11.4139942 147.886638 11.5612018 147.886638 11.7672879 147.916581 11.9733969 148.00641 12.0911538 148.216467 12.1794829 148.336238 12.267812 148.486181 12.2972398 148.636124 12.2972398 148.995895 12.3266905 149.385838 12.3855689 149.775553 12.4150196ZM158.021039 13.7693157C158.021039 13.7987664 158.050982 13.8281942 158.050982 13.8281942 158.170982 14.6231106 158.290982 15.3885992 158.38081 16.1540649 158.410982 16.4190294 158.440925 16.6545662 158.62081 16.8606522 159.010525 17.3611534 159.610296 17.302275 159.88001 16.772346 160.000002 16.5073586 160.029953 16.2423941 159.970067 15.9479789 159.790182 15.0647333 159.700125 14.1814878 159.520239 13.3276929 159.400239 12.797741 159.250525 12.2972398 159.100582 11.8261893 159.010525 11.5317741 158.800696 11.3256651 158.440925 11.2962373 158.081153 11.2373589 157.81121 11.4139942 157.661267 11.6789817 157.481382 11.9144955 157.331439 12.1500322 157.211439 12.4150196 157.00161 12.8860702 156.821724 13.3571436 156.581953 13.7987664 156.551782 13.9165233 156.521839 14.0048525 156.461953 14.0931586 156.43201 14.0342802 156.402067 14.0048525 156.402067 14.0048525 156.012124 13.2688145 155.652353 12.5327765 155.262639 11.8261893 155.202524 11.7672879 155.172581 11.7084094 155.142639 11.649531 154.962753 11.3845665 154.752924 11.2373589 154.423096 11.2373589 154.12321 11.2667866 153.88321 11.4434449 153.733496 11.7084094 153.673381 11.8261893 153.673381 11.9144955 153.643438 12.0322753 153.523438 12.9743993 153.373496 13.9165233 153.253724 14.8586473 153.19361 15.3885992 153.163667 15.9185282 153.163667 16.4484801 153.133724 16.566237 153.163667 16.7134446 153.223553 16.8312245 153.283667 17.0667382 153.463553 17.2139688 153.703324 17.2433965 154.00321 17.2728472 154.213039 17.1845181 154.303096 16.9489813 154.392924 16.772346 154.423096 16.6251384 154.453039 16.4779308 154.573039 15.9479789 154.662867 15.4474777 154.752924 14.9469765 154.81281 14.6525613 154.842753 14.4170245 154.93281 14.0931586 154.992696 14.2109385 155.052581 14.2992676 155.112696 14.3875738 155.38241 14.7408904 155.652353 15.094184 155.982182 15.3885992 156.31201 15.624113 156.581953 15.5946853 156.851667 15.3296978 156.911782 15.2708194 156.941724 15.2413916 157.00161 15.1824902 157.271553 14.7703182 157.601382 14.3581461 157.871096 13.9459511 157.93121 13.8870726 157.961153 13.8281942 158.021039 13.7693157ZM88.9341772 12.9934286C88.72572 13.552946 88.6859486 13.9560511 88.7821771 14.2910958 88.8884629 14.7466979 89.1643486 14.8958567 89.5387486 14.779982 93.0605774 13.9248558 100.783321 16.352071 103.642521 17.0285648 104.316807 17.1706076 104.865378 16.3158946 104.405264 15.5495796 103.733721 14.8074586 96.0144062 11.6301573 93.0690346 11.4569193 91.9145202 11.3928531 89.8505201 11.1021565 88.9341772 12.9934286ZM119.116122 2.70822491C119.491436 2.92094482 119.701265 3.12386312 119.804808 3.35058531 119.959093 3.64798459 119.877722 3.85374926 119.618522 3.95874342 117.290522 5.07438094 114.192693 9.877416 112.942179 11.5339318 112.639093 11.9150005 111.939893 11.6935578 111.834293 11.0668983 111.856007 10.358337 114.602065 5.14597621 116.134636 3.72630555 116.736922 3.17202179 117.731893 2.08445311 119.116122 2.70822491ZM100.576692.343850152C101.027664.0101433488 101.496235-.10679744 101.735549.110069896 105.248007 3.05961331 107.110635 7.73047602 108.264007 12.0065432 108.307436 12.106166 108.310178 12.249127 108.275436 12.3982628 108.261036 12.5257295 108.166178 12.6603809 108.01555 12.7645717 107.854636 12.879597 107.716121 12.9146256 107.650978 12.8155078 106.11155 10.7595368 97.319092 2.76010221 100.576692.343850152ZM26.1965731 51.4815687C27.0384017 50.866157 27.9536018 50.3538112 28.922059 49.9562382 29.9353162 49.6718312 31.0153162 49.7188881 31.9988592 50.0907519 32.9821735 50.4626158 33.8157736 51.1386276 34.3730307 52.016869 34.8715451 52.892815 35.0665165 53.904193 34.9289165 54.8985845 34.7913165 55.8927465 34.3284593 56.8162084 33.6098307 57.5298657 33.0528021 58.1083206 32.4203449 58.6121732 31.7293734 59.0285689 28.6496018 60.9822315 25.5424016 62.8286963 22.4353614 64.7823589 21.7995899 65.271291 21.1251442 65.7099526 20.4184698 66.0937529 19.3435669 66.6201009 18.1151326 66.7610419 16.9455553 66.492244 15.776001 66.2236757 14.7388809 65.5618957 14.0135323 64.6219065 13.4712922 63.9562243 13.0136694 63.2283352 12.6507665 62.4540779 9.70722343 56.3791536 6.65467466 50.3308566 3.82013734 44.1487346 2.51188582 41.472692 1.44894404 38.3949446.413252544 35.424395-.0348357138 34.5613035-.122337205 33.5607143.169379842 32.6351864.461097118 31.7096586 1.10901716 30.9324172 1.97531665 30.4687351 2.84162299 30.005053 3.85794305 29.8916574 4.80816026 30.1524212 5.75837746 30.413185 6.56752037 31.0276786 7.06347469 31.8650609 8.58793193 33.8543031 9.93739488 35.9672703 11.097235 38.1810081 14.040778 43.5333228 16.8480696 48.8856375 19.6825841 54.0774999 19.8476355 54.3644319 20.0296241 54.6412639 20.2276813 54.9070777 22.3611443 54.0263112 24.367773 52.8746809 26.1965731 51.4815687ZM56.6310893 49.6144448C49.8992032 57.3485247 38.6155453 55.3948621 32.9465164 45.4394695 28.9126875 38.3742855 28.2041161 26.7060236 36.9803452 19.3464933 38.8544025 17.8057144 41.0953169 16.7561171 43.4941742 16.2956028 46.4354315 15.8815714 49.434746 16.3910708 52.0633176 17.7513121 54.6918892 19.1115534 56.8153179 21.2528695 58.1302894 23.8692991 62.9270897 32.4331863 62.2457183 43.3519818 56.6310893 49.6144448ZM53.9056034 31.5767517C53.1904034 29.4722776 51.7556605 27.6756242 49.8445746 26.4918576 48.7632031 25.7350457 47.4491459 25.3670841 46.1238887 25.4499501 44.7984029 25.5328161 43.5426313 26.0614596 42.5675456 26.9468169 38.6701739 30.3456986 37.8523453 38.4011423 40.6868597 43.1915294 41.0482312 43.9726731 41.5787455 44.666819 42.2418313 45.225533 42.904917 45.784247 43.6843456 46.1939858 44.5254886 46.4258269 45.3666315 46.6578975 46.2491458 46.7065612 47.1115459 46.5686043 47.9739459 46.4304178 48.7949745 46.109054 49.5177174 45.6267787 51.6304033 44.0183527 53.1803463 41.8036967 53.9520035 39.2906315 54.7238892 36.7773368 54.6790892 34.0905055 53.8240034 31.6036085L53.9056034 31.5767517ZM84.1040054 34.9487765C83.4148625 35.0943084 82.7028625 35.1030312 82.0100624 34.9742561 81.3174909 34.845481 80.6578338 34.5821922 80.0704051 34.1995397 79.556348 33.9107713 79.1138337 33.513887 78.7746336 33.0371208 78.4356622 32.5603546 78.2084622 32.0158724 78.1094907 31.4424675 78.0102907 30.8692921 78.0420622 30.2816554 78.2018336 29.7217937 78.3618336 29.161932 78.6464051 28.6438476 79.0347479 28.2047268 79.7113194 27.3223535 80.6717766 26.6906441 81.7602338 26.4117462 84.6020626 25.6019093 87.5275485 25.1081567 90.4818344 24.9398998 91.1309773 24.8657565 91.7885773 24.9196998 92.4160059 25.0985158 93.0436631 25.2775614 93.6283489 25.5775774 94.1362346 25.9815777 94.6438918 26.3853484 95.0644633 26.8848396 95.3730347 27.45044 95.6813776 28.0160403 95.8717776 28.6365021 95.9328062 29.2753275 96.7844634 32.4132158 96.8777205 35.7032929 96.2052633 38.8829585 93.7524632 49.1594854 85.3033198 52.6919627 75.8185192 49.4002788 73.156119 48.5202009 70.8217188 46.8803272 69.113833 44.6902326 66.83589 42.0527537 65.2208042 38.9270313 64.3986327 35.5644178 63.7325755 32.5699955 63.8054898 29.4628663 64.6116613 26.5019576 65.4176042 23.5410489 66.9332614 20.8123256 69.0320044 18.5437264 71.023776 16.0780165 73.608919 14.1375069 76.5545192 12.8969277 78.4157765 11.8895668 80.5938338 11.6031398 82.6596625 12.094069 83.1282339 12.2214209 83.5536054 12.4695597 83.8916625 12.8127533 84.2297197 13.1559699 84.4681197 13.5817081 84.5821769 14.0458723 84.696234 14.5100135 84.6816054 14.9956631 84.5401197 15.4524588 84.3984054 15.9092316 84.1350911 16.3205085 83.7771482 16.6436168 83.0964625 17.2485843 82.3570339 17.7864096 81.5693767 18.2493342 79.1462908 19.7644958 77.0377192 21.7168959 75.3552048 24.0031242 74.2523476 25.4825456 73.4928047 27.1814125 73.1302904 28.9799023 72.7675475 30.7783921 72.8107475 32.6331205 73.2566904 34.4137057 73.8747476 36.84138 75.2464048 39.0204563 77.1812621 40.6490824 83.1773768 46.0016266 90.9723487 40.8363916 89.6096058 33.5304143 87.6201199 34.0122305 85.8756627 34.520674 84.1040054 34.9487765ZM120.735322 50.0425474C111.877493 55.3950916 101.793149 50.0425474 99.5853778 38.8026176 97.9773777 30.7740307 101.029949 19.5339173 111.714064 15.2519966 113.987207 14.3605563 116.452808 14.0475709 118.882065 14.3420779 121.800694 14.8667044 124.478179 16.2775605 126.536694 18.3757679 128.595208 20.4739524 129.931437 23.1535759 130.356351 26.0371277 132.155209 35.5910451 128.06698 45.7874606 120.735322 50.0425474ZM123.815322 32.031711C123.812579 29.8085619 123.011665 27.6572606 121.553151 25.9567868 120.773494 24.9050088 119.646408 24.1514106 118.364122 23.8243082 117.081608 23.4974352 115.723665 23.617258 114.52115 24.1638061 109.72435 26.1975801 106.344693 33.5838984 107.571207 39.0167836 107.664921 39.869316 107.946978 40.6915483 108.39795 41.4258647 108.848921 42.160181 109.457836 42.7889064 110.182179 43.2681976 110.906293 43.7472593 111.728464 44.0654095 112.590864 44.2001528 113.453493 44.3346665 114.33555 44.2827892 115.175322 44.047964 117.710865 43.1782158 119.906293 41.5528034 121.455094 39.3985179 123.004122 37.2442325 123.829265 34.6687309 123.815322 32.031711ZM139.314066 52.2907169C139.180352 53.270188 138.656009 54.1573818 137.856009 54.7571844 137.056009 55.3567575 136.04618 55.6200463 135.048694 55.4887462 134.051209 55.3574461 133.147666 54.8423458 132.536923 54.0568408 131.925951 53.2715653 131.658066 52.2799283 131.79178 51.3004572 131.925494 50.3209862 132.450066 49.4337924 133.249837 48.8339898 134.049837 48.2341871 135.059666 47.9711279 136.057152 48.102428 137.054637 48.233728 137.95818 48.7485988 138.569152 49.5341039 139.179895 50.3196089 139.448009 51.3112459 139.314066 52.2907169ZM136.942866 16.1886345C137.461266 15.4112783 138.221723 14.8193032 139.110866 14.5009923 139.99978 14.1826814 140.969838 14.15509 141.876123 14.42235 142.797495 14.6487049 143.611438 15.1789782 144.182181 15.9243816 144.752695 16.669808 145.045038 17.5850752 145.010524 18.5169385 144.890295 20.0116705 144.662638 21.4962108 144.329152 22.9593803 143.429724 27.9104494 142.557495 32.8612888 141.603666 37.7588737 141.167552 39.7125363 140.595209 41.585858 139.968238 43.5661478 139.75018 44.1852323 139.385838 44.7446349 138.90538 45.1986761 138.606638 45.54024 138.225152 45.8021515 137.795895 45.9603084 137.366637 46.1186949 136.90378 46.1680472 136.450066 46.104004 135.996352 46.0399607 135.56618 45.8645879 135.19978 45.5941832 134.83338 45.3235489 134.542409 44.9666055 134.353837 44.5564075 134.029723 43.8204844 133.853723 43.0296998 133.835894 42.2281265 133.835894 38.9095858 133.835894 35.5644178 134.053952 32.2190203 134.424466 27.4449309 135.153152 22.7040797 136.234295 18.0352141 136.361609 17.4097023 136.60138 16.8115294 136.942866 16.2689296L136.942866 16.1886345Z"/><path d="M14.6813952 73.7961554C14.3595894 74.5015491 14.271338 75.2879723 14.4285952 76.0447841 14.5332123 77.0423893 14.7629952 78.0236967 15.1127095 78.966211 15.5493267 80.1203662 16.0378981 81.2616669 16.640321 82.6683224 16.7788582 82.9919817 16.9236353 83.3298728 17.0751325 83.6854389 17.8875211 85.5911265 18.9068583 88.0266053 20.2665155 91.551278 20.6513613 92.5525559 20.9930985 93.5620974 21.3372356 94.5785253 21.4762528 94.9891824 21.6157728 95.4012167 21.7585842 95.8141693 22.2704928 97.2823429 23.1513157 98.6013119 24.3188587 99.6466626 24.8146301 100.221215 25.4722302 100.639906 26.2096016 100.849252 26.9613731 101.062729 27.760916 101.049186 28.5046875 100.810459 29.248459 100.571502 29.9017162 100.118379 30.3796591 99.5098534 30.8482305 98.9132644 31.1268591 98.1943276 31.1810305 97.4432544 31.4850306 95.9801307 31.3812591 94.4630639 30.8802305 93.0525062 30.0850305 90.7104524 29.1792018 88.3649555 28.1346303 86.0708768L28.1298303 86.0607768C26.4114302 82.4716018 24.6646873 78.9072177 22.8352929 75.3414564L22.8216014 75.3164359C22.2860585 74.3874649 21.5900813 73.5569689 20.7649384 72.8623639 20.2292584 72.2423613 19.4903555 71.8241292 18.6743554 71.6799746 17.8409611 71.5328358 16.981441 71.6811223 16.2492353 72.0986657 15.5565724 72.4870569 15.0074981 73.0813505 14.6813952 73.7961554ZM40.9273169 64.9581908C38.2329167 64.2729972 35.4189737 64.1731449 32.6816021 64.6657497 30.5613734 64.8707339 28.4761161 65.3509433 27.028116 66.3021803 26.2916588 66.786292 25.6962302 67.4079014 25.3650302 68.1979974 25.0320016 68.9924547 24.9894873 69.9009962 25.2624016 70.9132923 25.7606873 72.7675616 26.4077731 74.5704127 27.0525731 76.3675252L27.1570303 76.6585891 27.1595446 76.6650163C29.1010304 81.8858014 31.0610305 87.0889115 33.0388592 92.274117 33.2694878 93.0912994 33.5956593 93.879559 34.010745 94.6230572L34.0185164 94.6368299C34.5668593 95.5605214 35.2701737 96.386656 36.0987451 97.0805723 36.5131452 97.4620771 37.0256024 97.7260546 37.5812595 97.844041 38.1424024 97.9629456 38.7259453 97.9285138 39.2683454 97.7439591 39.810974 97.559634 40.2914311 97.2325315 40.6576026 96.7982312 41.0178312 96.3710469 41.2537169 95.8564057 41.3403455 95.3087099 41.6978312 93.8207953 41.5833169 92.2610329 41.0118883 90.8387684 40.8336026 90.3601658 40.6937169 89.8710042 40.5462883 89.3561334 40.4971454 89.1844333 40.4473169 89.0097491 40.3947454 88.8318512 44.92206 87.0941911 49.7392032 84.7576464 51.4331461 79.3220066 52.0964605 77.443635 52.1517748 75.4096315 51.5913176 73.4988939 51.0304033 71.5860904 49.879546 69.8906666 48.2973745 68.6460704 46.1440029 66.9038193 43.6285742 65.6449912 40.9273169 64.9581908ZM33.458745 71.6253427C33.5478878 71.6000927 33.6377164 71.5766791 33.7277736 71.5548722 36.6752023 71.0999128 39.6907454 71.7061428 42.2192027 73.2615437 43.3334885 74.0224874 43.7899456 74.8679038 43.8683457 75.6814134 43.9492599 76.5190253 43.6390885 77.4266486 43.0160027 78.2991515 41.8386312 79.9472889 39.6900597 81.2664874 37.7492595 81.5123307 36.3344023 78.3129242 34.8976022 74.9840539 33.458745 71.6253427Z"/><path fill-rule="nonzero" d="M58.8905181 59.1017939C62.099204 57.6467044 66.0738328 57.395352 69.1840044 58.4184367 69.9673188 58.6424732 70.6468617 59.127044 71.1065189 59.789283 71.5632046 60.4473902 71.7739475 61.2404703 71.7035475 62.0333208 71.698976 62.547962 71.5702903 63.0543396 71.3282332 63.5111354 71.0818331 63.9761947 70.7250331 64.3760632 70.2880045 64.677227 69.8509759 64.9781613 69.3465187 65.1716682 68.8173758 65.2407614 68.2880044 65.3100842 67.7497186 65.2531569 67.2475472 65.0748L67.2093757 65.0612568 67.17349 65.0426636C66.9165757 64.9106749 66.6436614 64.8112816 66.3613757 64.7465498L66.3435471 64.7426475C64.1556613 64.1719971 62.0918897 65.1174955 61.3380611 66.2792257 60.9785182 66.8331193 60.9339468 67.3922923 61.2333754 67.9009654 61.5540611 68.4456771 62.3405754 69.056957 63.9321184 69.4926346 64.3698327 69.610621 64.8185184 69.7244756 65.2736042 69.8401666 66.5321186 70.1601532 67.8400044 70.4925352 69.1046901 70.9532332L69.1094901 70.9550696C74.9440048 73.1348346 77.1165764 77.6493079 76.3728049 81.8954423 75.6370334 86.09452 72.0656046 89.9159951 66.6948614 90.8174207 64.7405756 91.2427687 62.7067469 91.1599027 60.7947468 90.5770864 58.8779466 89.9924338 57.1501751 88.9257354 55.7830893 87.4823527L55.7474321 87.4447072C55.3158893 86.9009137 55.0256035 86.2620883 54.8969178 85.5842401 54.7785178 84.9725011 54.8409178 84.3403325 55.0763464 83.7621072 55.3104035 83.187325 55.7062893 82.6898997 56.2171465 82.3274472 56.7568036 81.9165605 57.407318 81.6700286 58.0882323 81.6186104 58.7668609 81.5674217 59.4459467 81.712265 60.0418324 82.0350061 60.6370325 82.3173472 61.1906325 82.6775042 61.6875468 83.1058363L61.6969182 83.1136408C62.576004 83.9030482 63.6395469 84.108721 64.6594327 83.9181982 65.6941756 83.7249208 66.6672043 83.1237408 67.2930329 82.3260699 67.9147472 81.5334489 68.1643472 80.5918529 67.8681186 79.6778023 67.5700615 78.7570949 66.6738328 77.725517 64.7046899 76.8631142 64.189947 76.6484891 63.6562327 76.4754117 63.1010326 76.3069252 62.9513183 76.2614752 62.7990897 76.2162547 62.6450326 76.1703456 62.2345183 76.0479978 61.8121182 75.9219772 61.3979468 75.7831021 61.1126896 75.6876112 60.8297182 75.5971702 60.5494896 75.5074179 59.7835467 75.2624927 59.0368038 75.0237653 58.3181752 74.7035492 56.7540608 74.1806443 55.4027464 73.1766119 54.4653749 71.8399679 53.5241177 70.4980443 53.0505177 68.893291 53.1149748 67.2653536 53.1200034 63.298117 55.6646893 60.5649176 58.8905181 59.1017939ZM99.5700636 58.6792005C98.9478921 58.3807912 98.259892 58.2391616 97.5682349 58.2669366 96.8763491 58.2949412 96.2025205 58.4914322 95.607549 58.8391938 95.0162347 59.1844304 94.5211489 59.6678534 94.1664061 60.2465378 93.8411489 60.7338632 93.616006 61.2788044 93.5037774 61.8510616 93.3915489 62.4228597 93.3942917 63.0104964 93.5115489 63.5809172 93.6274346 64.3140859 93.7558918 65.0270545 93.8827489 65.7301527 94.0928061 66.8937193 94.2971489 68.0311177 94.4320061 69.1907821L94.4370347 69.2201639C94.7440061 71.0388537 94.9046918 72.8782026 94.9190918 74.7214538L94.9204633 74.747622C95.0253775 76.7382414 94.3346346 78.6900676 92.9963488 80.1890004L92.9750917 80.2156277C92.5396631 80.763553 91.9574916 81.1817851 91.2934916 81.4234966 90.6297201 81.6652081 89.9106344 81.7207581 89.2164629 81.583949 88.5222914 81.4471398 87.8806914 81.1234805 87.3632056 80.6490097 86.8457199 80.174539 86.4724627 79.5662432 86.286177 78.8957405 85.8884627 77.4824282 85.6582912 76.0287159 85.5997769 74.5637559L86.2790913 63.9442879C86.2891484 63.8056424 86.300577 63.6633241 86.3122341 63.5196285 86.3380627 63.197117 86.364577 62.8686372 86.3755484 62.5621938 86.3915484 62.1113663 86.3778341 61.6476842 86.2708627 61.208793 86.161377 60.7602609 85.9531484 60.3335356 85.5837769 59.9701649 85.2180626 59.610467 84.7243483 59.3451123 84.1030911 59.1644599 82.9796625 58.845162 82.0297196 58.855262 81.2381767 59.185119 80.4461766 59.514976 79.903548 60.1274037 79.519548 60.8348632 79.1385194 61.5363546 78.8937194 62.3668505 78.7085765 63.1987238 78.571205 63.8159719 78.460805 64.4639791 78.3558907 65.0807682 78.3195479 65.2933274 78.2841193 65.5019843 78.2482336 65.7046731L78.2473193 65.7106413C77.6859478 69.0932252 77.5188621 72.5276865 77.7492621 75.9474568 77.7922336 77.7955284 78.1846907 79.6197273 78.9069765 81.3268579 79.7218337 83.5295775 81.1977195 85.4380196 83.1398911 86.8003727 85.0861769 88.1654804 87.4086913 88.9177013 89.8000058 88.9574127 92.1913202 88.9971241 94.5385204 88.3224896 96.5307491 87.0230319 98.5197778 85.7254107 100.061264 83.8656322 100.951321 81.6897695 102.196349 78.9180064 102.781035 75.9036136 102.660349 72.8763662 102.587207 70.6663012 102.464692 68.4392498 102.342864 66.2234461 102.282978 65.1365477 102.223321 64.0519448 102.169835 62.9739987 102.142864 61.8930684 101.779892 60.846111 101.129378 59.9736081 100.726864 59.4220101 100.191092 58.9771507 99.5700636 58.6792005ZM121.591094 75.3306678C121.528008 75.4094019 121.461494 75.4908906 121.392008 75.5755929 120.885951 72.7090275 120.416922 69.8433802 119.947208 66.9733716 119.778751 65.9436301 119.609379 64.9095271 119.439093 63.8784083L119.419893 63.763406 119.357722 63.6640127C119.240465 63.4769331 119.228808 63.2935261 119.228808 62.9023804L119.228808 62.8571599 119.221722 62.8123985C119.094636 62.0046276 118.722522 61.2528658 118.154065 60.6555881 117.587208 60.0599173 116.850979 59.6453579 116.04115 59.4653942 115.232693 59.2695918 114.383093 59.3127464 113.599322 59.5895783 112.817607 59.8657217 112.136236 60.3619993 111.640236 61.0162042 111.227893 61.5182205 110.889836 62.0750981 110.636579 62.6700803 110.061721 63.9518629 109.481836 65.2368592 108.90035 66.5252986L108.890293 66.5475645C107.438635 69.764187 105.97715 73.0023868 104.558178 76.2660661L104.553835 76.2766252C103.68275 78.3928061 102.963664 80.622612 102.247092 82.8455316 102.104007 83.2892432 101.960921 83.7327253 101.816692 84.1750597 101.557949 84.876551 101.444807 85.6216561 101.483664 86.3665315 101.436578 87.0333615 101.599092 87.6985846 101.949721 88.2722191 102.307207 88.8575604 102.842749 89.3180288 103.480692 89.5891222 104.156807 89.880186 104.912692 89.9419338 105.628807 89.7647246 106.343321 89.5877449 106.977835 89.1828265 107.432464 88.6135534 108.013036 87.9122916 108.512464 87.1474456 108.919778 86.3371497 110.121836 83.9227891 111.270636 81.4790466 112.414179 79.0458633 112.856693 78.1047263 113.286636 77.2618349 113.775779 76.343882 113.809379 76.457048 113.843664 76.5674595 113.879093 76.6781004 114.391779 78.8943632 115.25715 81.0172009 116.443208 82.9687976 116.667665 83.3822092 116.98035 83.743514 117.359779 84.027921 117.743779 84.3157711 118.186979 84.5177713 118.658522 84.6203781 119.130065 84.722985 119.618751 84.7234441 120.090522 84.6217554 120.561608 84.5202963 121.006179 84.3180666 121.390408 84.0315937L122.150865 83.4726502 128.053265 78.5909039 127.704237 80.7750303C127.225151 83.7772572 126.749722 86.7544636 126.24458 89.7323586 125.914065 91.0522458 125.914522 92.4308967 126.245951 93.7503248 126.389494 94.4929048 126.755208 95.1764916 127.296465 95.7140874 127.842294 96.2560445 128.541265 96.6242357 129.302865 96.7711449 130.064466 96.9178245 130.853494 96.8365654 131.567323 96.5374674 132.270866 96.2429604 132.869266 95.7503556 133.287551 95.1225484 134.260809 93.9369454 134.866523 92.5015967 135.032923 90.9872844 135.283437 88.8488376 135.566409 86.6812385 135.849609 84.5143281 136.17578 82.0166424 136.501952 79.5196454 136.77738 77.0706234L136.778295 77.0630484C137.043437 74.3821854 137.172019 71.6903041 137.162752 68.9968161 137.220809 68.145661 137.005037 67.2977195 136.545152 66.5730441 136.083666 65.8458436 135.400237 65.2804728 134.592466 64.9570431 133.752237 64.5819656 132.811666 64.4816541 131.909037 64.6712588 131.012351 64.8594862 130.200694 65.3236274 129.59178 65.9959665 128.503094 66.9846194 127.481837 68.042595 126.534408 69.1630071L126.528008 69.1705821C125.493722 70.436067 124.466522 71.7263428 123.445951 73.008355 122.825379 73.7876623 122.206636 74.5651332 121.591094 75.3306678Z"/></g></g></svg>