<svg xmlns="http://www.w3.org/2000/svg" xmlns:xlink="http://www.w3.org/1999/xlink" width="650" height="360" viewBox="0 0 650 360"><defs><filter id="a" width="133%" height="147%" x="-16.5%" y="-17%" filterUnits="objectBoundingBox"><feOffset dy="12" in="SourceAlpha" result="shadowOffsetOuter1"/><feGaussianBlur in="shadowOffsetOuter1" result="shadowBlurOuter1" stdDeviation="12.5"/><feColorMatrix in="shadowBlurOuter1" result="shadowMatrixOuter1" values="0 0 0 0 0 0 0 0 0 0 0 0 0 0 0 0 0 0 0.1 0"/><feMerge><feMergeNode in="shadowMatrixOuter1"/><feMergeNode in="SourceGraphic"/></feMerge></filter><filter id="c" width="100.8%" height="104.5%" x="-.4%" y="-2.3%" filterUnits="objectBoundingBox"><feOffset dy="-1" in="SourceAlpha" result="shadowOffsetInner1"/><feComposite in="shadowOffsetInner1" in2="SourceAlpha" k2="-1" k3="1" operator="arithmetic" result="shadowInnerInner1"/><feColorMatrix in="shadowInnerInner1" result="shadowMatrixInner1" values="0 0 0 0 0.892 0 0 0 0 0.914909091 0 0 0 0 0.928 0 0 0 1 0"/><feOffset dx="1" in="SourceAlpha" result="shadowOffsetInner2"/><feComposite in="shadowOffsetInner2" in2="SourceAlpha" k2="-1" k3="1" operator="arithmetic" result="shadowInnerInner2"/><feColorMatrix in="shadowInnerInner2" result="shadowMatrixInner2" values="0 0 0 0 0.892 0 0 0 0 0.914909091 0 0 0 0 0.928 0 0 0 1 0"/><feMerge><feMergeNode in="shadowMatrixInner1"/><feMergeNode in="shadowMatrixInner2"/></feMerge></filter><filter id="e" width="100.8%" height="105%" x="-.4%" y="-2.5%" filterUnits="objectBoundingBox"><feOffset dy="1" in="SourceAlpha" result="shadowOffsetInner1"/><feComposite in="shadowOffsetInner1" in2="SourceAlpha" k2="-1" k3="1" operator="arithmetic" result="shadowInnerInner1"/><feColorMatrix in="shadowInnerInner1" result="shadowMatrixInner1" values="0 0 0 0 0.892 0 0 0 0 0.914909091 0 0 0 0 0.928 0 0 0 1 0"/><feOffset dx="1" in="SourceAlpha" result="shadowOffsetInner2"/><feComposite in="shadowOffsetInner2" in2="SourceAlpha" k2="-1" k3="1" operator="arithmetic" result="shadowInnerInner2"/><feColorMatrix in="shadowInnerInner2" result="shadowMatrixInner2" values="0 0 0 0 0.892 0 0 0 0 0.914909091 0 0 0 0 0.928 0 0 0 1 0"/><feMerge><feMergeNode in="shadowMatrixInner1"/><feMergeNode in="shadowMatrixInner2"/></feMerge></filter><filter id="g" width="101.3%" height="104.5%" x="-.7%" y="-2.3%" filterUnits="objectBoundingBox"><feOffset dy="-1" in="SourceAlpha" result="shadowOffsetInner1"/><feComposite in="shadowOffsetInner1" in2="SourceAlpha" k2="-1" k3="1" operator="arithmetic" result="shadowInnerInner1"/><feColorMatrix in="shadowInnerInner1" values="0 0 0 0 0.892 0 0 0 0 0.914909091 0 0 0 0 0.928 0 0 0 1 0"/></filter><filter id="i" width="101.3%" height="104.5%" x="-.7%" y="-2.3%" filterUnits="objectBoundingBox"><feOffset dy="-1" in="SourceAlpha" result="shadowOffsetInner1"/><feComposite in="shadowOffsetInner1" in2="SourceAlpha" k2="-1" k3="1" operator="arithmetic" result="shadowInnerInner1"/><feColorMatrix in="shadowInnerInner1" values="0 0 0 0 0.892 0 0 0 0 0.914909091 0 0 0 0 0.928 0 0 0 1 0"/></filter><filter id="k" width="101.3%" height="104.5%" x="-.7%" y="-2.3%" filterUnits="objectBoundingBox"><feOffset dy="-1" in="SourceAlpha" result="shadowOffsetInner1"/><feComposite in="shadowOffsetInner1" in2="SourceAlpha" k2="-1" k3="1" operator="arithmetic" result="shadowInnerInner1"/><feColorMatrix in="shadowInnerInner1" values="0 0 0 0 0.892 0 0 0 0 0.914909091 0 0 0 0 0.928 0 0 0 1 0"/></filter><filter id="m" width="101.3%" height="104.5%" x="-.7%" y="-2.3%" filterUnits="objectBoundingBox"><feOffset dy="-1" in="SourceAlpha" result="shadowOffsetInner1"/><feComposite in="shadowOffsetInner1" in2="SourceAlpha" k2="-1" k3="1" operator="arithmetic" result="shadowInnerInner1"/><feColorMatrix in="shadowInnerInner1" values="0 0 0 0 0.892 0 0 0 0 0.914909091 0 0 0 0 0.928 0 0 0 1 0"/></filter><filter id="o" width="101.3%" height="104.5%" x="-.7%" y="-2.3%" filterUnits="objectBoundingBox"><feOffset dy="-1" in="SourceAlpha" result="shadowOffsetInner1"/><feComposite in="shadowOffsetInner1" in2="SourceAlpha" k2="-1" k3="1" operator="arithmetic" result="shadowInnerInner1"/><feColorMatrix in="shadowInnerInner1" values="0 0 0 0 0.892 0 0 0 0 0.914909091 0 0 0 0 0.928 0 0 0 1 0"/></filter><filter id="q" width="100.5%" height="104.1%" x="-.3%" y="-2.1%" filterUnits="objectBoundingBox"><feOffset dy="-1" in="SourceAlpha" result="shadowOffsetInner1"/><feComposite in="shadowOffsetInner1" in2="SourceAlpha" k2="-1" k3="1" operator="arithmetic" result="shadowInnerInner1"/><feColorMatrix in="shadowInnerInner1" values="0 0 0 0 0.892 0 0 0 0 0.914909091 0 0 0 0 0.928 0 0 0 1 0"/></filter><filter id="s" width="100.4%" height="111.4%" x="-.2%" y="-2.8%" filterUnits="objectBoundingBox"><feOffset dy="1" in="SourceAlpha" result="shadowOffsetOuter1"/><feColorMatrix in="shadowOffsetOuter1" values="0 0 0 0 0.892 0 0 0 0 0.914909091 0 0 0 0 0.928 0 0 0 1 0"/></filter><filter id="t" width="133%" height="147%" x="-16.5%" y="-17%" filterUnits="objectBoundingBox"><feOffset dy="12" in="SourceAlpha" result="shadowOffsetOuter1"/><feGaussianBlur in="shadowOffsetOuter1" result="shadowBlurOuter1" stdDeviation="12.5"/><feColorMatrix in="shadowBlurOuter1" result="shadowMatrixOuter1" values="0 0 0 0 0 0 0 0 0 0 0 0 0 0 0 0 0 0 0.1 0"/><feMerge><feMergeNode in="shadowMatrixOuter1"/><feMergeNode in="SourceGraphic"/></feMerge></filter><filter id="v" width="100.8%" height="100.8%" x="-.4%" y="-.4%" filterUnits="objectBoundingBox"><feOffset dx="-1" in="SourceAlpha" result="shadowOffsetInner1"/><feComposite in="shadowOffsetInner1" in2="SourceAlpha" k2="-1" k3="1" operator="arithmetic" result="shadowInnerInner1"/><feColorMatrix in="shadowInnerInner1" values="0 0 0 0 0.892 0 0 0 0 0.914909091 0 0 0 0 0.928 0 0 0 1 0"/></filter><filter id="x" width="100.5%" height="104.1%" x="-.3%" y="-2.1%" filterUnits="objectBoundingBox"><feOffset dy="-1" in="SourceAlpha" result="shadowOffsetInner1"/><feComposite in="shadowOffsetInner1" in2="SourceAlpha" k2="-1" k3="1" operator="arithmetic" result="shadowInnerInner1"/><feColorMatrix in="shadowInnerInner1" values="0 0 0 0 0.892 0 0 0 0 0.914909091 0 0 0 0 0.928 0 0 0 1 0"/></filter><filter id="z" width="100.4%" height="111.4%" x="-.2%" y="-2.8%" filterUnits="objectBoundingBox"><feOffset dy="1" in="SourceAlpha" result="shadowOffsetOuter1"/><feColorMatrix in="shadowOffsetOuter1" values="0 0 0 0 0.892 0 0 0 0 0.914909091 0 0 0 0 0.928 0 0 0 1 0"/></filter><filter id="A" width="133%" height="147%" x="-16.5%" y="-17%" filterUnits="objectBoundingBox"><feOffset dy="12" in="SourceAlpha" result="shadowOffsetOuter1"/><feGaussianBlur in="shadowOffsetOuter1" result="shadowBlurOuter1" stdDeviation="12.5"/><feColorMatrix in="shadowBlurOuter1" result="shadowMatrixOuter1" values="0 0 0 0 0 0 0 0 0 0 0 0 0 0 0 0 0 0 0.1 0"/><feMerge><feMergeNode in="shadowMatrixOuter1"/><feMergeNode in="SourceGraphic"/></feMerge></filter><filter id="C" width="100.5%" height="103%" x="-.3%" y="-1.5%" filterUnits="objectBoundingBox"><feOffset dy="-1" in="SourceAlpha" result="shadowOffsetInner1"/><feComposite in="shadowOffsetInner1" in2="SourceAlpha" k2="-1" k3="1" operator="arithmetic" result="shadowInnerInner1"/><feColorMatrix in="shadowInnerInner1" values="0 0 0 0 0.892 0 0 0 0 0.914909091 0 0 0 0 0.928 0 0 0 1 0"/></filter><filter id="E" width="100.4%" height="111.4%" x="-.2%" y="-2.8%" filterUnits="objectBoundingBox"><feOffset dy="1" in="SourceAlpha" result="shadowOffsetOuter1"/><feColorMatrix in="shadowOffsetOuter1" values="0 0 0 0 0.892 0 0 0 0 0.914909091 0 0 0 0 0.928 0 0 0 1 0"/></filter><rect id="b" width="123.2" height="22.024" x="0" y="0"/><rect id="f" width="74.8" height="22.024" x="0" y="0"/><rect id="h" width="74.8" height="22.024" x="0" y="0"/><rect id="j" width="74.8" height="22.024" x="0" y="0"/><rect id="l" width="74.8" height="22.024" x="0" y="0"/><rect id="n" width="74.8" height="22.024" x="0" y="0"/><rect id="p" width="198" height="24.226" x="0" y="0"/><rect id="r" width="264" height="17.619" x="0" y="0"/><rect id="u" width="123.2" height="129.39" x="0" y="0"/><rect id="w" width="198" height="24.226" x="0" y="0"/><rect id="y" width="264" height="17.619" x="0" y="0"/><rect id="B" width="198" height="33.036" x="0" y="0"/><rect id="D" width="264" height="17.619" x="0" y="0"/><path id="d" d="M0,0 L123.2,0 L123.2,15.4214286 C123.2,17.8514815 121.230053,19.8214286 118.8,19.8214286 L0,19.8214286 L0,19.8214286 L0,0 Z"/></defs><g fill="none" fill-rule="evenodd" transform="translate(48 48)"><g filter="url(#a)" transform="translate(290)"><rect width="264" height="185" fill="#F6F8F9" rx="4.4"/><g transform="translate(140.8 55.61)"><use xlink:href="#b" fill="#FFF"/><use xlink:href="#b" fill="#000" filter="url(#c)"/><rect width="41.8" height="2.2" x="24.2" y="7.15" fill="#B3BEC6" rx="1.1"/><circle cx="14.3" cy="11" r="5.5" fill="#FFF1D2"/><rect width="30.8" height="2.2" x="24.2" y="12.65" fill="#D3DADE" rx="1.1"/></g><g transform="translate(140.8 165.179)"><use xlink:href="#d" fill="#FFF"/><use xlink:href="#d" fill="#000" filter="url(#e)"/></g><g transform="translate(66 55.61)"><use xlink:href="#f" fill="#FFF"/><use xlink:href="#f" fill="#000" filter="url(#g)"/><rect width="41.8" height="2.202" x="24.2" y="7.158" fill="#B3BEC6" rx="1.101"/><ellipse cx="14.3" cy="11.012" fill="#FFF1D2" rx="5.5" ry="5.506"/><rect width="30.8" height="2.202" x="24.2" y="12.664" fill="#D3DADE" rx="1.101"/></g><g transform="translate(66 77.634)"><use xlink:href="#h" fill="#FFF"/><use xlink:href="#h" fill="#000" filter="url(#i)"/><rect width="41.8" height="2.202" x="24.2" y="7.158" fill="#B3BEC6" rx="1.101"/><ellipse cx="14.3" cy="11.012" fill="#CBEAAD" rx="5.5" ry="5.506"/><rect width="30.8" height="2.202" x="24.2" y="12.664" fill="#D3DADE" rx="1.101"/></g><g transform="translate(66 99.658)"><use xlink:href="#j" fill="#FFF"/><use xlink:href="#j" fill="#000" filter="url(#k)"/><rect width="41.8" height="2.202" x="24.2" y="7.158" fill="#B3BEC6" rx="1.101"/><ellipse cx="14.3" cy="11.012" fill="#D5F2EC" rx="5.5" ry="5.506"/><rect width="30.8" height="2.202" x="24.2" y="12.664" fill="#D3DADE" rx="1.101"/></g><g transform="translate(66 121.681)"><use xlink:href="#l" fill="#FFF"/><use xlink:href="#l" fill="#000" filter="url(#m)"/><rect width="41.8" height="2.202" x="24.2" y="7.158" fill="#B3BEC6" rx="1.101"/><ellipse cx="14.3" cy="11.012" fill="#FECACA" rx="5.5" ry="5.506"/><rect width="30.8" height="2.202" x="24.2" y="12.664" fill="#D3DADE" rx="1.101"/></g><g transform="translate(66 143.705)"><use xlink:href="#n" fill="#FFF"/><use xlink:href="#n" fill="#000" filter="url(#o)"/><rect width="41.8" height="2.202" x="24.2" y="7.158" fill="#B3BEC6" rx="1.101"/><ellipse cx="14.3" cy="11.012" fill="#D5F2F8" rx="5.5" ry="5.506"/><rect width="30.8" height="2.202" x="24.2" y="12.664" fill="#D3DADE" rx="1.101"/></g><g transform="translate(66 165.73)"><rect width="74.8" height="19.271" fill="#FFF"/><rect width="41.8" height="2.202" x="24.2" y="7.158" fill="#B3BEC6" rx="1.101"/><ellipse cx="14.3" cy="11.012" fill="#CBEAAD" rx="5.5" ry="5.506"/><rect width="30.8" height="2.202" x="24.2" y="12.664" fill="#D3DADE" rx="1.101"/></g><rect width="56.1" height="34.688" x="149.6" y="86.443" fill="#3DB2D3" rx="4.4"/><rect width="56.1" height="13.214" x="199.1" y="127.738" fill="#B3BEC6" rx="4.4"/><rect width="30.8" height="13.214" x="224.4" y="143.155" fill="#B3BEC6" rx="4.4"/><g transform="translate(0 30.833)"><path fill="#293B4B" d="M0,0 L66,0 L66,154.166667 L4.4,154.166667 C1.9699471,154.166667 -5.90582769e-16,152.19672 -8.8817842e-16,149.766667 L0,0 L0,0 Z"/><rect width="44" height="2.75" x="6.6" y="8.8" fill="#3E5160" rx="1.375"/><rect width="30.8" height="2.75" x="6.6" y="18.15" fill="#3E5160" rx="1.375"/><rect width="39.6" height="2.75" x="6.6" y="27.5" fill="#3E5160" rx="1.375"/><rect width="39.6" height="2.75" x="6.6" y="46.2" fill="#3E5160" rx="1.375"/><rect width="26.4" height="2.75" x="6.6" y="36.85" fill="#3E5160" rx="1.375"/><rect width="26.4" height="2.75" x="6.6" y="55.55" fill="#3E5160" rx="1.375"/></g><g transform="translate(66 31.384)"><use xlink:href="#p" fill="#FFF"/><use xlink:href="#p" fill="#000" filter="url(#q)"/><rect width="94.05" height="2.75" x="8.8" y="7.7" fill="#B3BEC6" rx="1.375"/><rect width="46.75" height="2.2" x="8.8" y="14.3" fill="#D3DADE" rx="1.1"/></g><g transform="translate(0 13.214)"><use xlink:href="#r" fill="#000" filter="url(#s)"/><use xlink:href="#r" fill="#FFF"/><rect width="11" height="11" x="246.4" y="3.31" fill="#D3DADE" rx="2.75"/></g><path fill="#FFF" d="M4.4,0 L259.6,0 C262.030053,-4.46393476e-16 264,1.9699471 264,4.4 L264,13.2142857 L264,13.2142857 L0,13.2142857 L0,4.4 C-2.9759565e-16,1.9699471 1.9699471,2.9759565e-16 4.4,0 Z"/><rect width="3.3" height="3.3" x="6.6" y="6.6" fill="#FF5F57" rx="1.65"/><rect width="3.3" height="3.3" x="12.1" y="6.6" fill="#FFBD31" rx="1.65"/><rect width="3.3" height="3.3" x="17.6" y="6.6" fill="#29C941" rx="1.65"/></g><g filter="url(#t)" transform="translate(145 79)"><rect width="264" height="185" fill="#F6F8F9" rx="4.4"/><g transform="translate(66 55.61)"><use xlink:href="#u" fill="#FFF"/><use xlink:href="#u" fill="#000" filter="url(#v)"/><rect width="106.951" height="3.3" x="8.8" y="11" fill="#B3BEC6" rx="1.65"/><rect width="62.787" height="3.3" x="8.8" y="18.7" fill="#B3BEC6" rx="1.65"/><rect width="106.951" height="2.2" x="8.8" y="35.2" fill="#D3DADE" rx="1.1"/><rect width="106.951" height="2.2" x="8.8" y="44" fill="#D3DADE" rx="1.1"/><rect width="106.951" height="2.2" x="8.8" y="52.8" fill="#D3DADE" rx="1.1"/><rect width="106.951" height="2.2" x="8.8" y="94.6" fill="#D3DADE" rx="1.1"/><rect width="106.951" height="2.2" x="8.8" y="61.6" fill="#D3DADE" rx="1.1"/><rect width="106.951" height="2.2" x="8.8" y="103.4" fill="#D3DADE" rx="1.1"/><rect width="106.951" height="2.2" x="8.8" y="70.4" fill="#D3DADE" rx="1.1"/><rect width="106.951" height="2.2" x="8.8" y="112.2" fill="#D3DADE" rx="1.1"/><rect width="60.127" height="2.2" x="8.8" y="79.2" fill="#D3DADE" rx="1.1"/></g><g transform="translate(198 64.42)"><rect width="57.2" height="61.667" fill="#FFF" rx="4.4"/><g transform="translate(6.6 8.8)"><rect width="19.417" height="2.2" y="30.8" fill="#E3E9ED" rx="1.1"/><rect width="19.417" height="2.2" y="24.2" fill="#E3E9ED" rx="1.1"/><rect width="17.074" height="2.2" y="37.4" fill="#E3E9ED" rx="1.1"/><rect width="19.417" height="2.2" y="44" fill="#E3E9ED" rx="1.1"/><rect width="38.5" height="2.2" fill="#B3BEC6" rx="1.1"/><rect width="28.568" height="2.2" y="6.6" fill="#B3BEC6" rx="1.1"/></g></g><g transform="translate(198 134.896)"><path fill="#FFF" d="M4.4,0 L52.8,0 C55.2300529,-4.46393476e-16 57.2,1.9699471 57.2,4.4 L57.2,50.1041667 L57.2,50.1041667 L0,50.1041667 L0,4.4 C-2.9759565e-16,1.9699471 1.9699471,5.62666617e-15 4.4,5.32907052e-15 Z"/><g transform="translate(6.6 8.8)"><rect width="19.417" height="2.2" y="30.8" fill="#E3E9ED" rx="1.1"/><rect width="19.417" height="2.2" y="24.2" fill="#E3E9ED" rx="1.1"/><rect width="38.5" height="2.2" fill="#B3BEC6" rx="1.1"/><rect width="28.568" height="2.2" y="6.6" fill="#B3BEC6" rx="1.1"/></g></g><g transform="translate(0 30.833)"><path fill="#293B4B" d="M0,0 L66,0 L66,154.166667 L4.4,154.166667 C1.9699471,154.166667 -5.90582769e-16,152.19672 -8.8817842e-16,149.766667 L0,0 L0,0 Z"/><rect width="44" height="2.75" x="6.6" y="8.8" fill="#3E5160" rx="1.375"/><rect width="30.8" height="2.75" x="6.6" y="18.15" fill="#3E5160" rx="1.375"/><rect width="39.6" height="2.75" x="6.6" y="27.5" fill="#3E5160" rx="1.375"/><rect width="39.6" height="2.75" x="6.6" y="46.2" fill="#3E5160" rx="1.375"/><rect width="26.4" height="2.75" x="6.6" y="36.85" fill="#3E5160" rx="1.375"/><rect width="26.4" height="2.75" x="6.6" y="55.55" fill="#3E5160" rx="1.375"/></g><g transform="translate(66 31.384)"><use xlink:href="#w" fill="#FFF"/><use xlink:href="#w" fill="#000" filter="url(#x)"/><rect width="94.05" height="2.75" x="8.8" y="7.7" fill="#B3BEC6" rx="1.375"/><rect width="46.75" height="2.2" x="8.8" y="14.3" fill="#D3DADE" rx="1.1"/></g><g transform="translate(0 13.214)"><use xlink:href="#y" fill="#000" filter="url(#z)"/><use xlink:href="#y" fill="#FFF"/><rect width="11" height="11" x="246.4" y="3.31" fill="#D3DADE" rx="2.75"/></g><path fill="#FFF" d="M4.4,0 L259.6,0 C262.030053,-4.46393476e-16 264,1.9699471 264,4.4 L264,13.2142857 L264,13.2142857 L0,13.2142857 L0,4.4 C-2.9759565e-16,1.9699471 1.9699471,2.9759565e-16 4.4,0 Z"/><rect width="3.3" height="3.3" x="6.6" y="6.6" fill="#29C941" rx="1.65"/><rect width="3.3" height="3.3" x="12.1" y="6.6" fill="#FFBD31" rx="1.65"/><rect width="3.3" height="3.3" x="17.6" y="6.6" fill="#29C941" rx="1.65"/></g><g filter="url(#A)"><rect width="264" height="185" fill="#F6F8F9" rx="4.4"/><g transform="translate(0 30.833)"><path fill="#293B4B" d="M0,0 L66,0 L66,154.166667 L4.4,154.166667 C1.9699471,154.166667 -5.90582769e-16,152.19672 -8.8817842e-16,149.766667 L0,0 L0,0 Z"/><rect width="44" height="2.75" x="6.6" y="8.8" fill="#3E5160" rx="1.375"/><rect width="30.8" height="2.75" x="6.6" y="18.15" fill="#3E5160" rx="1.375"/><rect width="39.6" height="2.75" x="6.6" y="27.5" fill="#3E5160" rx="1.375"/><rect width="39.6" height="2.75" x="6.6" y="46.2" fill="#3E5160" rx="1.375"/><rect width="26.4" height="2.75" x="6.6" y="36.85" fill="#3E5160" rx="1.375"/><rect width="26.4" height="2.75" x="6.6" y="55.55" fill="#3E5160" rx="1.375"/></g><g transform="translate(66 31.384)"><use xlink:href="#B" fill="#FFF"/><use xlink:href="#B" fill="#000" filter="url(#C)"/><rect width="94.05" height="2.75" x="8.8" y="7.7" fill="#B3BEC6" rx="1.375"/><rect width="46.75" height="2.2" x="8.8" y="14.3" fill="#D3DADE" rx="1.1"/><rect width="15.4" height="1.1" x="8.8" y="27.5" fill="#31968C" rx=".55"/><rect width="17.6" height="1.1" x="30.8" y="27.5" fill="#D3DADE" rx=".55"/><rect width="13.2" height="1.1" x="55" y="27.5" fill="#D3DADE" rx=".55"/></g><g transform="translate(0 13.214)"><use xlink:href="#D" fill="#000" filter="url(#E)"/><use xlink:href="#D" fill="#FFF"/><rect width="11" height="11" x="246.4" y="3.31" fill="#D3DADE" rx="2.75"/></g><path fill="#FFF" d="M4.4,0 L259.6,0 C262.030053,-4.46393476e-16 264,1.9699471 264,4.4 L264,13.2142857 L264,13.2142857 L0,13.2142857 L0,4.4 C-2.9759565e-16,1.9699471 1.9699471,2.9759565e-16 4.4,0 Z"/><rect width="3.3" height="3.3" x="6.6" y="6.6" fill="#FF5F57" rx="1.65"/><rect width="3.3" height="3.3" x="12.1" y="6.6" fill="#FFBD31" rx="1.65"/><rect width="3.3" height="3.3" x="17.6" y="6.6" fill="#29C941" rx="1.65"/><g transform="translate(74.8 71.027)"><rect width="56.65" height="50.655" fill="#FFF" rx="4.4"/><g transform="translate(6.6 8.8)"><rect width="19.14" height="2.2" y="30.8" fill="#E3E9ED" rx="1.1"/><rect width="19.14" height="2.2" y="24.2" fill="#E3E9ED" rx="1.1"/><rect width="37.95" height="2.2" fill="#B3BEC6" rx="1.1"/><rect width="28.16" height="2.2" y="6.6" fill="#B3BEC6" rx="1.1"/></g></g><g transform="translate(74.8 128.289)"><rect width="56.65" height="50.655" fill="#FFF" rx="4.4"/><g transform="translate(6.6 8.8)"><rect width="19.14" height="2.2" y="30.8" fill="#E3E9ED" rx="1.1"/><rect width="19.14" height="2.2" y="24.2" fill="#E3E9ED" rx="1.1"/><rect width="37.95" height="2.2" fill="#B3BEC6" rx="1.1"/><rect width="28.16" height="2.2" y="6.6" fill="#B3BEC6" rx="1.1"/></g></g><g transform="translate(136.4 71.027)"><rect width="56.65" height="50.655" fill="#FFF" rx="4.4"/><g transform="translate(6.6 8.8)"><rect width="19.14" height="2.2" y="30.8" fill="#E3E9ED" rx="1.1"/><rect width="19.14" height="2.2" y="24.2" fill="#E3E9ED" rx="1.1"/><rect width="37.95" height="2.2" fill="#B3BEC6" rx="1.1"/><rect width="28.16" height="2.2" y="6.6" fill="#B3BEC6" rx="1.1"/></g></g><g transform="translate(136.4 128.289)"><rect width="56.65" height="50.655" fill="#FFF" rx="4.4"/><g transform="translate(6.6 8.8)"><rect width="19.14" height="2.2" y="30.8" fill="#E3E9ED" rx="1.1"/><rect width="19.14" height="2.2" y="24.2" fill="#E3E9ED" rx="1.1"/><rect width="37.95" height="2.2" fill="#B3BEC6" rx="1.1"/><rect width="28.16" height="2.2" y="6.6" fill="#B3BEC6" rx="1.1"/></g></g><g transform="translate(198.55 71.027)"><rect width="56.65" height="50.655" fill="#FFF" rx="4.4"/><g transform="translate(6.6 8.8)"><rect width="19.14" height="2.2" y="30.8" fill="#E3E9ED" rx="1.1"/><rect width="19.14" height="2.2" y="24.2" fill="#E3E9ED" rx="1.1"/><rect width="37.95" height="2.2" fill="#B3BEC6" rx="1.1"/><rect width="28.16" height="2.2" y="6.6" fill="#B3BEC6" rx="1.1"/></g></g><g transform="translate(198.55 128.289)"><rect width="56.65" height="50.655" fill="#FFF" rx="4.4"/><g transform="translate(6.6 8.8)"><rect width="19.14" height="2.2" y="30.8" fill="#E3E9ED" rx="1.1"/><rect width="19.14" height="2.2" y="24.2" fill="#E3E9ED" rx="1.1"/><rect width="37.95" height="2.2" fill="#B3BEC6" rx="1.1"/><rect width="28.16" height="2.2" y="6.6" fill="#B3BEC6" rx="1.1"/></g></g></g></g></svg>