<svg xmlns="http://www.w3.org/2000/svg" width="312" height="160" viewBox="0 0 312 160"><g fill="none" fill-rule="evenodd"><g opacity=".5"><rect width="263" height="91" x=".5" y=".5" fill="#FFF" stroke="#F6F8F9" rx="8"/><rect width="64" height="4" x="52" y="56" fill="#D3DADE" rx="2"/><rect width="48" height="4" x="52" y="64" fill="#D3DADE" rx="2"/><rect width="56" height="4" x="52" y="72" fill="#D3DADE" rx="2"/><rect width="144" height="6" x="52" y="30" fill="#97A5B0" rx="3"/><rect width="48" height="4" x="52" y="20" fill="#D3DADE" rx="2"/><rect width="24" height="24" x="16" y="16" fill="#D3DADE" rx="4"/><g transform="translate(48 68)"><rect width="272" height="100" x="-4" y="-4" fill="#FFF" stroke="#F6F8F9" stroke-width="8" rx="8"/><rect width="64" height="4" x="52" y="56" fill="#D3DADE" rx="2"/><rect width="48" height="4" x="52" y="64" fill="#D3DADE" rx="2"/><rect width="56" height="4" x="52" y="72" fill="#D3DADE" rx="2"/><rect width="144" height="6" x="52" y="30" fill="#97A5B0" rx="3"/><rect width="48" height="4" x="52" y="20" fill="#D3DADE" rx="2"/><rect width="24" height="24" x="16" y="16" fill="#D3DADE" rx="4"/></g></g><g transform="translate(100 24)"><circle cx="56" cy="56" r="56" fill="#F6F8F9"/><circle cx="56" cy="56" r="46.667" fill="#FFF"/><path fill="#D3DADE" fill-rule="nonzero" d="M11.0800966,0.807169277 C17.6923712,-1.3667623 24.9532028,0.9506677 29.0831094,6.55315447 C33.2129994,12.1556186 33.2782715,19.7764624 29.2449503,25.4488333 L28.9020546,25.9310739 L29.3204796,26.3494684 L42.8184458,39.8464515 C43.6065518,40.6625305 43.595159,41.9735003 42.7843116,42.7842886 C41.9734365,43.5951047 40.6622844,43.6064974 39.8374395,42.8098936 L26.3509522,29.3242391 L25.932567,28.9058844 L25.4503651,29.2487374 C20.5360144,32.7429165 14.0817867,33.2008579 8.72324452,30.4355608 C3.36471985,27.6702727 -0.00117157894,22.1446449 3.05907506e-07,16.1148153 C-0.000887318604,9.1548528 4.46783865,2.98109537 11.0800966,0.807169277 Z M16.112913,4.20711294 C9.53598179,4.20711294 4.20430496,9.53840146 4.20430496,16.1149046 C4.20430496,22.6914078 9.53598179,28.0226963 16.112913,28.0226963 C22.6898442,28.0226963 28.021521,22.6914078 28.021521,16.1149046 C28.021521,9.53840146 22.6898442,4.20711294 16.112913,4.20711294 Z" transform="translate(34.3 34.3)"/><path fill="#293C4B" fill-rule="nonzero" d="M52.9007233,45.8684345 C53.4157206,45.3710335 54.2343346,45.378147 54.7406102,45.8844226 C55.2468858,46.3906983 55.2539993,47.2093122 54.7565983,47.7243095 L52.1898185,50.2909959 L54.7619277,52.8631052 C55.2539993,53.3726796 55.2468858,54.1912936 54.7406102,54.6975692 C54.2343346,55.2038448 53.4157206,55.2109584 52.9007233,54.7135573 L50.3340369,52.1467775 L47.7619277,54.7188867 C47.4270631,55.0655025 46.9390711,55.2023386 46.4801824,55.0822245 C46.0212938,54.9621105 45.6629223,54.603739 45.5428083,54.1448504 C45.4226943,53.6859618 45.5595303,53.1979698 45.9007233,52.8684345 L48.4782553,50.2909959 L45.9061461,47.7188867 C45.4140745,47.2093122 45.421188,46.3906983 45.9274636,45.8844226 C46.4337392,45.378147 47.2523532,45.3710335 47.7673505,45.8684345 L50.3340369,48.4352144 L52.9007233,45.8684345 Z"/></g></g></svg>