<svg width="312" height="184" viewBox="0 0 312 184" fill="none" xmlns="http://www.w3.org/2000/svg">
<g id="Type=ratings">
<g id="card" opacity="0.5">
<g id="base" filter="url(#filter0_dd_2389_18993)">
<path d="M104 94C104 89.5817 107.582 86 112 86H264C268.418 86 272 89.5817 272 94V152C272 156.418 268.418 160 264 160H112C107.582 160 104 156.418 104 152V94Z" fill="white"/>
</g>
<g id="TIP">
<path id="Vector" d="M166.416 120.238V115H168.381C168.784 115 169.122 115.075 169.394 115.225C169.668 115.375 169.875 115.581 170.016 115.844C170.157 116.106 170.227 116.404 170.227 116.737C170.227 117.072 170.155 117.371 170.013 117.633C169.872 117.893 169.663 118.098 169.387 118.248C169.11 118.396 168.77 118.47 168.367 118.47H167.066V117.689H168.237C168.474 117.689 168.667 117.65 168.817 117.57C168.97 117.488 169.081 117.375 169.151 117.232C169.224 117.087 169.26 116.922 169.26 116.737C169.26 116.549 169.224 116.385 169.151 116.245C169.081 116.102 168.97 115.991 168.817 115.914C168.667 115.834 168.473 115.795 168.234 115.795H167.365V120.238H166.416Z" fill="#97A5B0"/>
<path id="Vector_2" d="M165.656 115V120.238H164.707V115H165.656Z" fill="#97A5B0"/>
<path id="Vector_3" d="M160 115.795V115H164.177V115.795H162.559V120.238H161.621V115.795H160Z" fill="#97A5B0"/>
</g>
<g id="thumbs-down">
<path id="Vector_4" d="M156.78 116.75C156.78 117.164 156.445 117.5 156.03 117.5C155.616 117.5 155.28 117.164 155.28 116.75V113.75C155.28 113.336 155.616 113 156.03 113C156.445 113 156.78 113.336 156.78 113.75V116.75ZM154.78 116.834V114.119C154.781 113.74 154.567 113.393 154.228 113.224L154.203 113.211C153.925 113.072 153.619 113 153.308 113H150.6C150.124 113 149.713 113.336 149.619 113.804L149.019 116.804C148.961 117.098 149.037 117.403 149.227 117.634C149.417 117.866 149.701 118 150 118H151.78V120C151.78 120.552 152.228 121 152.78 121C153.057 121 153.28 120.776 153.28 120.5V120.167C153.28 119.734 153.421 119.313 153.68 118.967L154.38 118.034C154.64 117.687 154.78 117.266 154.78 116.834Z" fill="#F59E0B"/>
</g>
<g id="avatar">
<rect x="116" y="98" width="24" height="24" rx="4" fill="url(#paint0_linear_2389_18993)"/>
<path id="Vector_5" fill-rule="evenodd" clip-rule="evenodd" d="M125 105.2C125.663 105.2 126.2 105.737 126.2 106.4C126.2 107.063 125.663 107.6 125 107.6C124.337 107.6 123.8 107.063 123.8 106.4C123.8 105.737 124.337 105.2 125 105.2ZM131 105.2C131.663 105.2 132.2 105.737 132.2 106.4C132.2 107.063 131.663 107.6 131 107.6C130.337 107.6 129.8 107.063 129.8 106.4C129.8 105.737 130.337 105.2 131 105.2ZM122 112C125.767 113.867 128.317 114.8 129.65 114.8C130.983 114.8 132.433 113.6 134 111.2" fill="white"/>
</g>
<path id="name-placeholder" d="M148 100C148 98.8954 148.895 98 150 98H226C227.105 98 228 98.8954 228 100V100C228 101.105 227.105 102 226 102H150C148.895 102 148 101.105 148 100V100Z" fill="#D3DADE"/>
<path id="textrow" d="M116 141C116 140.448 116.448 140 117 140H247C247.552 140 248 140.448 248 141V141C248 141.552 247.552 142 247 142H117C116.448 142 116 141.552 116 141V141Z" fill="#E3E9ED"/>
<path id="textrow_2" d="M116 147C116 146.448 116.448 146 117 146H255C255.552 146 256 146.448 256 147V147C256 147.552 255.552 148 255 148H117C116.448 148 116 147.552 116 147V147Z" fill="#E3E9ED"/>
<path id="textrow_3" d="M116 135C116 134.448 116.448 134 117 134H260C260.552 134 261 134.448 261 135V135C261 135.552 260.552 136 260 136H117C116.448 136 116 135.552 116 135V135Z" fill="#E3E9ED"/>
<path id="company" d="M148 107C148 105.895 148.895 105 150 105H176C177.105 105 178 105.895 178 107V107C178 108.105 177.105 109 176 109H150C148.895 109 148 108.105 148 107V107Z" fill="#E3E9ED"/>
</g>
<g id="card_2">
<g id="base_2" filter="url(#filter1_dd_2389_18993)">
<path d="M40 32C40 27.5817 43.5817 24 48 24H200C204.418 24 208 27.5817 208 32V90C208 94.4183 204.418 98 200 98H48C43.5817 98 40 94.4183 40 90V32Z" fill="white"/>
</g>
<g id="TOP">
<path id="Vector_6" d="M105.942 58V52.7617H107.908C108.311 52.7617 108.648 52.8367 108.92 52.9867C109.194 53.1367 109.402 53.343 109.542 53.6055C109.683 53.868 109.753 54.1656 109.753 54.4984C109.753 54.8336 109.682 55.1324 109.539 55.3949C109.398 55.6551 109.19 55.8602 108.913 56.0102C108.637 56.1578 108.297 56.2316 107.894 56.2316H106.593V55.4512H107.763C108 55.4512 108.194 55.4113 108.344 55.3316C108.496 55.2496 108.607 55.1371 108.678 54.9941C108.75 54.8488 108.787 54.6836 108.787 54.4984C108.787 54.3109 108.75 54.1469 108.678 54.0063C108.607 53.8633 108.496 53.7531 108.344 53.6758C108.194 53.5961 107.999 53.5563 107.76 53.5563H106.892V58H105.942Z" fill="#97A5B0"/>
<path id="Vector_7" d="M102.912 58.0703C102.455 58.0703 102.044 57.9637 101.678 57.7504C101.315 57.5371 101.028 57.2301 100.817 56.8293C100.608 56.4285 100.504 55.9469 100.504 55.3844C100.504 54.8195 100.608 54.3367 100.817 53.9359C101.028 53.5328 101.315 53.2246 101.678 53.0113C102.044 52.798 102.455 52.6914 102.912 52.6914C103.371 52.6914 103.782 52.798 104.143 53.0113C104.504 53.2246 104.789 53.5328 105 53.9359C105.211 54.3367 105.317 54.8195 105.317 55.3844C105.317 55.9469 105.211 56.4285 105 56.8293C104.789 57.2301 104.504 57.5371 104.143 57.7504C103.782 57.9637 103.371 58.0703 102.912 58.0703ZM102.912 57.2195C103.196 57.2195 103.446 57.1492 103.664 57.0086C103.882 56.868 104.054 56.6617 104.178 56.3898C104.302 56.1156 104.364 55.7805 104.364 55.3844C104.364 54.9859 104.302 54.6496 104.178 54.3754C104.054 54.1012 103.882 53.8937 103.664 53.7531C103.446 53.6125 103.196 53.5422 102.912 53.5422C102.629 53.5422 102.377 53.6125 102.156 53.7531C101.938 53.8937 101.767 54.1012 101.643 54.3754C101.519 54.6496 101.457 54.9859 101.457 55.3844C101.457 55.7805 101.519 56.1156 101.643 56.3898C101.767 56.6617 101.938 56.868 102.156 57.0086C102.377 57.1492 102.629 57.2195 102.912 57.2195Z" fill="#97A5B0"/>
<path id="Vector_8" d="M96.1514 53.5563V52.7617H100.328V53.5563H98.7107V58H97.7721V53.5563H96.1514Z" fill="#97A5B0"/>
</g>
<g id="thumbs-up">
<path id="Vector_9" d="M85 55.25C85 54.9821 85.1429 54.7345 85.375 54.6005C85.6071 54.4665 85.8929 54.4665 86.125 54.6005C86.3571 54.7345 86.5 54.9821 86.5 55.25V58.25C86.5 58.6642 86.1642 59 85.75 59C85.3358 59 85 58.6642 85 58.25V55.25ZM87 55.1665V57.8815C86.9998 58.2605 87.2139 58.6071 87.553 58.7765L87.578 58.789C87.8554 58.9277 88.1613 58.9999 88.4715 59H91.1795C91.6564 59.0002 92.067 58.6636 92.1605 58.196L92.7605 55.196C92.8192 54.9023 92.7431 54.5977 92.5532 54.366C92.3633 54.1343 92.0796 54 91.78 54H90V52C90 51.4477 89.5523 51 89 51C88.7239 51 88.5 51.2239 88.5 51.5V51.8335C88.5 52.2662 88.3596 52.6873 88.1 53.0335L87.4 53.9665C87.1404 54.3127 87 54.7338 87 55.1665Z" fill="#7FC342"/>
</g>
<g id="avatar_2">
<rect x="52" y="36" width="24" height="24" rx="4" fill="url(#paint1_linear_2389_18993)"/>
<path id="Vector_10" fill-rule="evenodd" clip-rule="evenodd" d="M61 43.2C61.6627 43.2 62.2 43.7373 62.2 44.4C62.2 45.0627 61.6627 45.6 61 45.6C60.3373 45.6 59.8 45.0627 59.8 44.4C59.8 43.7373 60.3373 43.2 61 43.2ZM67 43.2C67.6627 43.2 68.2 43.7373 68.2 44.4C68.2 45.0627 67.6627 45.6 67 45.6C66.3373 45.6 65.8 45.0627 65.8 44.4C65.8 43.7373 66.3373 43.2 67 43.2ZM58 50C61.7667 51.8667 64.3167 52.8 65.65 52.8C66.9833 52.8 68.4333 51.6 70 49.2" fill="white"/>
</g>
<path id="name-placeholder_2" d="M84 38C84 36.8954 84.8954 36 86 36H162C163.105 36 164 36.8954 164 38V38C164 39.1046 163.105 40 162 40H86C84.8954 40 84 39.1046 84 38V38Z" fill="#D3DADE"/>
<path id="textrow_4" d="M52 79C52 78.4477 52.4477 78 53 78H183C183.552 78 184 78.4477 184 79V79C184 79.5523 183.552 80 183 80H53C52.4477 80 52 79.5523 52 79V79Z" fill="#E3E9ED"/>
<path id="textrow_5" d="M52 85C52 84.4477 52.4477 84 53 84H191C191.552 84 192 84.4477 192 85V85C192 85.5523 191.552 86 191 86H53C52.4477 86 52 85.5523 52 85V85Z" fill="#E3E9ED"/>
<path id="textrow_6" d="M52 73C52 72.4477 52.4477 72 53 72H196C196.552 72 197 72.4477 197 73V73C197 73.5523 196.552 74 196 74H53C52.4477 74 52 73.5523 52 73V73Z" fill="#E3E9ED"/>
<path id="company_2" d="M84 45C84 43.8954 84.8954 43 86 43H138C139.105 43 140 43.8954 140 45V45C140 46.1046 139.105 47 138 47H86C84.8954 47 84 46.1046 84 45V45Z" fill="#E3E9ED"/>
</g>
<g id="badge">
<g id="base_3" filter="url(#filter2_dd_2389_18993)">
<circle cx="156" cy="93" r="20" fill="white"/>
</g>
<g id="Nav-icon/Star">
<g id="Group">
<path id="Vector_11" d="M155.999 84.25C156.512 84.25 156.966 84.5692 157.151 85.0429L158.951 89.582L163.61 89.973C164.67 90.062 165.108 91.3491 164.417 92.0962L164.329 92.1832L160.754 95.391L161.849 100.198C161.95 100.64 161.81 101.103 161.486 101.41L161.383 101.498C160.972 101.811 160.414 101.834 159.98 101.555L155.999 99.008L152.02 101.556C151.624 101.809 151.127 101.813 150.731 101.577L150.616 101.499C150.219 101.197 150.039 100.686 150.15 100.199L151.244 95.392L147.669 92.1823C147.337 91.8828 147.191 91.4303 147.272 90.9965L147.308 90.8528C147.458 90.3677 147.881 90.0167 148.389 89.973L153.047 89.582L154.846 85.0482C155.017 84.6098 155.413 84.3044 155.872 84.2566L155.999 84.25ZM155.999 86.208L154.385 90.2764C154.211 90.7163 153.807 91.0236 153.336 91.063L149.066 91.421L152.345 94.3646C152.655 94.642 152.806 95.0543 152.758 95.4638L152.735 95.6001L151.744 99.95L155.34 97.6494C155.703 97.4175 156.154 97.3944 156.535 97.5801L156.66 97.6498L160.254 99.95L159.263 95.5982C159.172 95.1924 159.283 94.7679 159.556 94.4626L159.653 94.3655L162.931 91.421L158.663 91.063C158.239 91.0275 157.869 90.775 157.672 90.4042L157.613 90.2763L155.999 86.208Z" fill="#FF6D00"/>
</g>
</g>
</g>
</g>
<defs>
<filter id="filter0_dd_2389_18993" x="92" y="84" width="192" height="98" filterUnits="userSpaceOnUse" color-interpolation-filters="sRGB">
<feFlood flood-opacity="0" result="BackgroundImageFix"/>
<feColorMatrix in="SourceAlpha" type="matrix" values="0 0 0 0 0 0 0 0 0 0 0 0 0 0 0 0 0 0 127 0" result="hardAlpha"/>
<feMorphology radius="3" operator="erode" in="SourceAlpha" result="effect1_dropShadow_2389_18993"/>
<feOffset dy="10"/>
<feGaussianBlur stdDeviation="7.5"/>
<feComposite in2="hardAlpha" operator="out"/>
<feColorMatrix type="matrix" values="0 0 0 0 0 0 0 0 0 0 0 0 0 0 0 0 0 0 0.06 0"/>
<feBlend mode="normal" in2="BackgroundImageFix" result="effect1_dropShadow_2389_18993"/>
<feColorMatrix in="SourceAlpha" type="matrix" values="0 0 0 0 0 0 0 0 0 0 0 0 0 0 0 0 0 0 127 0" result="hardAlpha"/>
<feMorphology radius="4" operator="erode" in="SourceAlpha" result="effect2_dropShadow_2389_18993"/>
<feOffset dy="4"/>
<feGaussianBlur stdDeviation="3"/>
<feComposite in2="hardAlpha" operator="out"/>
<feColorMatrix type="matrix" values="0 0 0 0 0 0 0 0 0 0 0 0 0 0 0 0 0 0 0.06 0"/>
<feBlend mode="normal" in2="effect1_dropShadow_2389_18993" result="effect2_dropShadow_2389_18993"/>
<feBlend mode="normal" in="SourceGraphic" in2="effect2_dropShadow_2389_18993" result="shape"/>
</filter>
<filter id="filter1_dd_2389_18993" x="28" y="22" width="192" height="98" filterUnits="userSpaceOnUse" color-interpolation-filters="sRGB">
<feFlood flood-opacity="0" result="BackgroundImageFix"/>
<feColorMatrix in="SourceAlpha" type="matrix" values="0 0 0 0 0 0 0 0 0 0 0 0 0 0 0 0 0 0 127 0" result="hardAlpha"/>
<feMorphology radius="3" operator="erode" in="SourceAlpha" result="effect1_dropShadow_2389_18993"/>
<feOffset dy="10"/>
<feGaussianBlur stdDeviation="7.5"/>
<feComposite in2="hardAlpha" operator="out"/>
<feColorMatrix type="matrix" values="0 0 0 0 0 0 0 0 0 0 0 0 0 0 0 0 0 0 0.06 0"/>
<feBlend mode="normal" in2="BackgroundImageFix" result="effect1_dropShadow_2389_18993"/>
<feColorMatrix in="SourceAlpha" type="matrix" values="0 0 0 0 0 0 0 0 0 0 0 0 0 0 0 0 0 0 127 0" result="hardAlpha"/>
<feMorphology radius="4" operator="erode" in="SourceAlpha" result="effect2_dropShadow_2389_18993"/>
<feOffset dy="4"/>
<feGaussianBlur stdDeviation="3"/>
<feComposite in2="hardAlpha" operator="out"/>
<feColorMatrix type="matrix" values="0 0 0 0 0 0 0 0 0 0 0 0 0 0 0 0 0 0 0.06 0"/>
<feBlend mode="normal" in2="effect1_dropShadow_2389_18993" result="effect2_dropShadow_2389_18993"/>
<feBlend mode="normal" in="SourceGraphic" in2="effect2_dropShadow_2389_18993" result="shape"/>
</filter>
<filter id="filter2_dd_2389_18993" x="124" y="71" width="64" height="64" filterUnits="userSpaceOnUse" color-interpolation-filters="sRGB">
<feFlood flood-opacity="0" result="BackgroundImageFix"/>
<feColorMatrix in="SourceAlpha" type="matrix" values="0 0 0 0 0 0 0 0 0 0 0 0 0 0 0 0 0 0 127 0" result="hardAlpha"/>
<feMorphology radius="3" operator="erode" in="SourceAlpha" result="effect1_dropShadow_2389_18993"/>
<feOffset dy="10"/>
<feGaussianBlur stdDeviation="7.5"/>
<feComposite in2="hardAlpha" operator="out"/>
<feColorMatrix type="matrix" values="0 0 0 0 0 0 0 0 0 0 0 0 0 0 0 0 0 0 0.06 0"/>
<feBlend mode="normal" in2="BackgroundImageFix" result="effect1_dropShadow_2389_18993"/>
<feColorMatrix in="SourceAlpha" type="matrix" values="0 0 0 0 0 0 0 0 0 0 0 0 0 0 0 0 0 0 127 0" result="hardAlpha"/>
<feMorphology radius="4" operator="erode" in="SourceAlpha" result="effect2_dropShadow_2389_18993"/>
<feOffset dy="4"/>
<feGaussianBlur stdDeviation="3"/>
<feComposite in2="hardAlpha" operator="out"/>
<feColorMatrix type="matrix" values="0 0 0 0 0 0 0 0 0 0 0 0 0 0 0 0 0 0 0.06 0"/>
<feBlend mode="normal" in2="effect1_dropShadow_2389_18993" result="effect2_dropShadow_2389_18993"/>
<feBlend mode="normal" in="SourceGraphic" in2="effect2_dropShadow_2389_18993" result="shape"/>
</filter>
<linearGradient id="paint0_linear_2389_18993" x1="116" y1="122" x2="140" y2="98" gradientUnits="userSpaceOnUse">
<stop stop-color="#F7981D"/>
<stop offset="0.47" stop-color="#BFB399"/>
<stop offset="0.725" stop-color="#A0C28B"/>
<stop offset="1" stop-color="#6CDBCC"/>
</linearGradient>
<linearGradient id="paint1_linear_2389_18993" x1="52" y1="60" x2="76" y2="36" gradientUnits="userSpaceOnUse">
<stop stop-color="#F7981D"/>
<stop offset="0.47" stop-color="#BFB399"/>
<stop offset="0.725" stop-color="#A0C28B"/>
<stop offset="1" stop-color="#6CDBCC"/>
</linearGradient>
</defs>
</svg>
