<svg width="312" height="184" viewBox="0 0 312 184" fill="none" xmlns="http://www.w3.org/2000/svg">
<g id="Type=sent-responses" clip-path="url(#clip0_2389_18799)">
<g id="card" opacity="0.5">
<g id="base" filter="url(#filter0_dd_2389_18799)">
<path d="M20 52C20 47.5817 23.5817 44 28 44H132C136.418 44 140 47.5817 140 52V156C140 160.418 136.418 164 132 164H28C23.5817 164 20 160.418 20 156V52Z" fill="white"/>
</g>
<path id="logo-placeholder" d="M32 60C32 57.7909 33.7909 56 36 56H52C54.2091 56 56 57.7909 56 60V76C56 78.2091 54.2091 80 52 80H36C33.7909 80 32 78.2091 32 76V60Z" fill="#E3E9ED"/>
<path id="jobname-placeholder" d="M32 90C32 88.8954 32.8954 88 34 88H110C111.105 88 112 88.8954 112 90V90C112 91.1046 111.105 92 110 92H34C32.8954 92 32 91.1046 32 90V90Z" fill="#D3DADE"/>
<path id="meta" d="M32 127C32 126.448 32.4477 126 33 126H71C71.5523 126 72 126.448 72 127V127C72 127.552 71.5523 128 71 128H33C32.4477 128 32 127.552 32 127V127Z" fill="#E3E9ED"/>
<path id="meta_2" d="M32 119C32 118.448 32.4477 118 33 118H87C87.5523 118 88 118.448 88 119V119C88 119.552 87.5523 120 87 120H33C32.4477 120 32 119.552 32 119V119Z" fill="#E3E9ED"/>
<path id="jobname-placeholder_2" d="M32 98C32 96.8954 32.8954 96 34 96H94C95.1046 96 96 96.8954 96 98V98C96 99.1046 95.1046 100 94 100H34C32.8954 100 32 99.1046 32 98V98Z" fill="#D3DADE"/>
<path id="meta_3" d="M32 135C32 134.448 32.4477 134 33 134H79C79.5523 134 80 134.448 80 135V135C80 135.552 79.5523 136 79 136H33C32.4477 136 32 135.552 32 135V135Z" fill="#E3E9ED"/>
<path id="meta_4" d="M32 143C32 142.448 32.4477 142 33 142H87C87.5523 142 88 142.448 88 143V143C88 143.552 87.5523 144 87 144H33C32.4477 144 32 143.552 32 143V143Z" fill="#E3E9ED"/>
<path id="meta_5" d="M32 151C32 150.448 32.4477 150 33 150H63C63.5523 150 64 150.448 64 151V151C64 151.552 63.5523 152 63 152H33C32.4477 152 32 151.552 32 151V151Z" fill="#E3E9ED"/>
<g id="heart">
<path id="Vector" d="M118.421 58.575C119.418 57.7638 120.773 57.7474 121.82 58.4953L121.908 58.56L121.997 58.6264L122.087 58.56L122.174 58.4953C123.17 57.7825 124.456 57.7671 125.456 58.4861L125.571 58.5733C126.82 59.5613 127.01 61.2854 126.012 62.5087L125.961 62.5627L122.302 65.931C122.13 66.0897 121.865 66.0897 121.692 65.931L118.026 62.5552L117.975 62.5007C116.993 61.2963 117.183 59.5823 118.421 58.575ZM121.662 59.555C120.932 58.7414 119.799 58.6139 118.989 59.273C118.169 59.9407 118.016 61.0285 118.608 61.8465L118.656 61.9085L118.666 61.9221L118.683 61.9365L121.896 64.8944L121.997 64.9879L122.099 64.8944L125.32 61.9286L125.386 61.8471C125.961 61.0507 125.845 60.0153 125.105 59.3569L125.013 59.2796C124.18 58.6196 123.061 58.7431 122.332 59.555C122.153 59.7541 121.841 59.7541 121.662 59.555Z" fill="#D3DADE"/>
</g>
<path id="jobstatus-indicator" d="M88 59C88 57.3431 89.3431 56 91 56H125C126.657 56 128 57.3431 128 59V59C128 60.6569 126.657 62 125 62H91C89.3431 62 88 60.6569 88 59V59Z" fill="#FECACA"/>
</g>
<g id="card_2" opacity="0.5">
<g id="base_2" filter="url(#filter1_dd_2389_18799)">
<path d="M172 28C172 23.5817 175.582 20 180 20H284C288.418 20 292 23.5817 292 28V132C292 136.418 288.418 140 284 140H180C175.582 140 172 136.418 172 132V28Z" fill="white"/>
</g>
<path id="logo-placeholder_2" d="M184 36C184 33.7909 185.791 32 188 32H204C206.209 32 208 33.7909 208 36V52C208 54.2091 206.209 56 204 56H188C185.791 56 184 54.2091 184 52V36Z" fill="#E3E9ED"/>
<path id="jobname-placeholder_3" d="M184 66C184 64.8954 184.895 64 186 64H262C263.105 64 264 64.8954 264 66V66C264 67.1046 263.105 68 262 68H186C184.895 68 184 67.1046 184 66V66Z" fill="#D3DADE"/>
<path id="meta_6" d="M184 103C184 102.448 184.448 102 185 102H223C223.552 102 224 102.448 224 103V103C224 103.552 223.552 104 223 104H185C184.448 104 184 103.552 184 103V103Z" fill="#E3E9ED"/>
<path id="meta_7" d="M184 95C184 94.4477 184.448 94 185 94H239C239.552 94 240 94.4477 240 95V95C240 95.5523 239.552 96 239 96H185C184.448 96 184 95.5523 184 95V95Z" fill="#E3E9ED"/>
<path id="jobname-placeholder_4" d="M184 74C184 72.8954 184.895 72 186 72H246C247.105 72 248 72.8954 248 74V74C248 75.1046 247.105 76 246 76H186C184.895 76 184 75.1046 184 74V74Z" fill="#D3DADE"/>
<path id="meta_8" d="M184 111C184 110.448 184.448 110 185 110H231C231.552 110 232 110.448 232 111V111C232 111.552 231.552 112 231 112H185C184.448 112 184 111.552 184 111V111Z" fill="#E3E9ED"/>
<path id="meta_9" d="M184 119C184 118.448 184.448 118 185 118H239C239.552 118 240 118.448 240 119V119C240 119.552 239.552 120 239 120H185C184.448 120 184 119.552 184 119V119Z" fill="#E3E9ED"/>
<path id="meta_10" d="M184 127C184 126.448 184.448 126 185 126H215C215.552 126 216 126.448 216 127V127C216 127.552 215.552 128 215 128H185C184.448 128 184 127.552 184 127V127Z" fill="#E3E9ED"/>
<path id="jobstatus-indicator_2" d="M240 35C240 33.3431 241.343 32 243 32H277C278.657 32 280 33.3431 280 35V35C280 36.6569 278.657 38 277 38H243C241.343 38 240 36.6569 240 35V35Z" fill="#FDE68A"/>
</g>
<g id="card_3">
<g id="base_3" filter="url(#filter2_dd_2389_18799)">
<path d="M96 40C96 35.5817 99.5817 32 104 32H208C212.418 32 216 35.5817 216 40V144C216 148.418 212.418 152 208 152H104C99.5817 152 96 148.418 96 144V40Z" fill="white"/>
</g>
<path id="logo-placeholder_3" d="M108 48C108 45.7909 109.791 44 112 44H128C130.209 44 132 45.7909 132 48V64C132 66.2091 130.209 68 128 68H112C109.791 68 108 66.2091 108 64V48Z" fill="#E3E9ED"/>
<path id="jobname-placeholder_5" d="M108 78C108 76.8954 108.895 76 110 76H186C187.105 76 188 76.8954 188 78V78C188 79.1046 187.105 80 186 80H110C108.895 80 108 79.1046 108 78V78Z" fill="#D3DADE"/>
<path id="meta_11" d="M108 115C108 114.448 108.448 114 109 114H147C147.552 114 148 114.448 148 115V115C148 115.552 147.552 116 147 116H109C108.448 116 108 115.552 108 115V115Z" fill="#E3E9ED"/>
<path id="meta_12" d="M108 107C108 106.448 108.448 106 109 106H163C163.552 106 164 106.448 164 107V107C164 107.552 163.552 108 163 108H109C108.448 108 108 107.552 108 107V107Z" fill="#E3E9ED"/>
<path id="jobname-placeholder_6" d="M108 86C108 84.8954 108.895 84 110 84H170C171.105 84 172 84.8954 172 86V86C172 87.1046 171.105 88 170 88H110C108.895 88 108 87.1046 108 86V86Z" fill="#D3DADE"/>
<path id="meta_13" d="M108 123C108 122.448 108.448 122 109 122H155C155.552 122 156 122.448 156 123V123C156 123.552 155.552 124 155 124H109C108.448 124 108 123.552 108 123V123Z" fill="#E3E9ED"/>
<path id="meta_14" d="M108 131C108 130.448 108.448 130 109 130H163C163.552 130 164 130.448 164 131V131C164 131.552 163.552 132 163 132H109C108.448 132 108 131.552 108 131V131Z" fill="#E3E9ED"/>
<path id="meta_15" d="M108 139C108 138.448 108.448 138 109 138H139C139.552 138 140 138.448 140 139V139C140 139.552 139.552 140 139 140H109C108.448 140 108 139.552 108 139V139Z" fill="#E3E9ED"/>
</g>
<path id="jobstatus-indicator_3" d="M164 47C164 45.3431 165.343 44 167 44H201C202.657 44 204 45.3431 204 47V47C204 48.6569 202.657 50 201 50H167C165.343 50 164 48.6569 164 47V47Z" fill="#E4F4D3"/>
<g id="badge">
<g id="base_4" filter="url(#filter3_dd_2389_18799)">
<circle cx="156" cy="93" r="20" fill="white"/>
</g>
<g id="Nav-icon/Paperplane">
<g id="Group">
<path id="Vector_2" d="M164.055 84.252L164.083 84.2551C164.121 84.2597 164.131 84.2612 164.155 84.266L164.165 84.2682C164.189 84.2739 164.189 84.2739 164.223 84.2837C164.23 84.286 164.23 84.286 164.243 84.2902L164.258 84.2952C164.274 84.301 164.294 84.3095 164.315 84.3188L164.36 84.3414C164.371 84.3479 164.371 84.3479 164.388 84.3575L164.405 84.3685L164.437 84.39C164.451 84.3999 164.451 84.3999 164.468 84.4138L164.482 84.4246L164.499 84.4398C164.506 84.4457 164.506 84.4457 164.514 84.4535L164.527 84.4667L164.536 84.4774L164.559 84.5034L164.581 84.5257L164.6 84.5485C164.606 84.5567 164.606 84.5567 164.617 84.5731L164.631 84.5935C164.635 84.6006 164.635 84.6006 164.638 84.605L164.644 84.614C164.654 84.6314 164.654 84.6314 164.664 84.6503L164.672 84.6653L164.679 84.6813C164.693 84.7103 164.705 84.74 164.714 84.7704C164.719 84.7861 164.719 84.7861 164.724 84.801C164.731 84.8281 164.731 84.8281 164.736 84.8557C164.739 84.8709 164.739 84.8709 164.742 84.8868L164.746 84.9188L164.748 84.9371L164.75 84.9835L164.75 84.9967L164.75 85.0282L164.749 85.0433L164.747 85.0597L164.742 85.1121L164.736 85.1446C164.731 85.1713 164.731 85.1713 164.724 85.1977C164.719 85.2143 164.719 85.2143 164.714 85.2305C164.713 85.2338 164.713 85.2338 164.71 85.2423L158.998 101.051C158.805 101.47 158.368 101.75 157.887 101.75C157.41 101.75 156.971 101.473 156.783 101.063L153.872 95.2392L153.76 95.1274L147.976 92.2354C147.569 92.0489 147.298 91.6676 147.256 91.2326L147.25 91.1012C147.25 90.6228 147.54 90.1916 148.044 89.9639L163.746 84.2946L163.758 84.2902C163.784 84.2813 163.811 84.2738 163.837 84.2678L163.87 84.2613L163.889 84.2584L163.933 84.253C163.944 84.2521 163.944 84.2521 163.96 84.252L164.055 84.252ZM162.151 87.9096L161.359 88.702L155.433 94.627L155.305 94.7544L155.386 94.9156L157.585 99.3128L157.845 99.8343L158.043 99.2859L161.77 88.9636L162.151 87.9096ZM161.093 86.8452L160.039 87.2256L149.709 90.9539L149.161 91.1518L149.682 91.4126L154.083 93.6133L154.245 93.6939L154.372 93.5665L161.093 86.8452Z" fill="#FF6D00"/>
</g>
</g>
</g>
</g>
<defs>
<filter id="filter0_dd_2389_18799" x="8" y="42" width="144" height="144" filterUnits="userSpaceOnUse" color-interpolation-filters="sRGB">
<feFlood flood-opacity="0" result="BackgroundImageFix"/>
<feColorMatrix in="SourceAlpha" type="matrix" values="0 0 0 0 0 0 0 0 0 0 0 0 0 0 0 0 0 0 127 0" result="hardAlpha"/>
<feMorphology radius="3" operator="erode" in="SourceAlpha" result="effect1_dropShadow_2389_18799"/>
<feOffset dy="10"/>
<feGaussianBlur stdDeviation="7.5"/>
<feComposite in2="hardAlpha" operator="out"/>
<feColorMatrix type="matrix" values="0 0 0 0 0 0 0 0 0 0 0 0 0 0 0 0 0 0 0.06 0"/>
<feBlend mode="normal" in2="BackgroundImageFix" result="effect1_dropShadow_2389_18799"/>
<feColorMatrix in="SourceAlpha" type="matrix" values="0 0 0 0 0 0 0 0 0 0 0 0 0 0 0 0 0 0 127 0" result="hardAlpha"/>
<feMorphology radius="4" operator="erode" in="SourceAlpha" result="effect2_dropShadow_2389_18799"/>
<feOffset dy="4"/>
<feGaussianBlur stdDeviation="3"/>
<feComposite in2="hardAlpha" operator="out"/>
<feColorMatrix type="matrix" values="0 0 0 0 0 0 0 0 0 0 0 0 0 0 0 0 0 0 0.06 0"/>
<feBlend mode="normal" in2="effect1_dropShadow_2389_18799" result="effect2_dropShadow_2389_18799"/>
<feBlend mode="normal" in="SourceGraphic" in2="effect2_dropShadow_2389_18799" result="shape"/>
</filter>
<filter id="filter1_dd_2389_18799" x="160" y="18" width="144" height="144" filterUnits="userSpaceOnUse" color-interpolation-filters="sRGB">
<feFlood flood-opacity="0" result="BackgroundImageFix"/>
<feColorMatrix in="SourceAlpha" type="matrix" values="0 0 0 0 0 0 0 0 0 0 0 0 0 0 0 0 0 0 127 0" result="hardAlpha"/>
<feMorphology radius="3" operator="erode" in="SourceAlpha" result="effect1_dropShadow_2389_18799"/>
<feOffset dy="10"/>
<feGaussianBlur stdDeviation="7.5"/>
<feComposite in2="hardAlpha" operator="out"/>
<feColorMatrix type="matrix" values="0 0 0 0 0 0 0 0 0 0 0 0 0 0 0 0 0 0 0.06 0"/>
<feBlend mode="normal" in2="BackgroundImageFix" result="effect1_dropShadow_2389_18799"/>
<feColorMatrix in="SourceAlpha" type="matrix" values="0 0 0 0 0 0 0 0 0 0 0 0 0 0 0 0 0 0 127 0" result="hardAlpha"/>
<feMorphology radius="4" operator="erode" in="SourceAlpha" result="effect2_dropShadow_2389_18799"/>
<feOffset dy="4"/>
<feGaussianBlur stdDeviation="3"/>
<feComposite in2="hardAlpha" operator="out"/>
<feColorMatrix type="matrix" values="0 0 0 0 0 0 0 0 0 0 0 0 0 0 0 0 0 0 0.06 0"/>
<feBlend mode="normal" in2="effect1_dropShadow_2389_18799" result="effect2_dropShadow_2389_18799"/>
<feBlend mode="normal" in="SourceGraphic" in2="effect2_dropShadow_2389_18799" result="shape"/>
</filter>
<filter id="filter2_dd_2389_18799" x="84" y="30" width="144" height="144" filterUnits="userSpaceOnUse" color-interpolation-filters="sRGB">
<feFlood flood-opacity="0" result="BackgroundImageFix"/>
<feColorMatrix in="SourceAlpha" type="matrix" values="0 0 0 0 0 0 0 0 0 0 0 0 0 0 0 0 0 0 127 0" result="hardAlpha"/>
<feMorphology radius="3" operator="erode" in="SourceAlpha" result="effect1_dropShadow_2389_18799"/>
<feOffset dy="10"/>
<feGaussianBlur stdDeviation="7.5"/>
<feComposite in2="hardAlpha" operator="out"/>
<feColorMatrix type="matrix" values="0 0 0 0 0 0 0 0 0 0 0 0 0 0 0 0 0 0 0.06 0"/>
<feBlend mode="normal" in2="BackgroundImageFix" result="effect1_dropShadow_2389_18799"/>
<feColorMatrix in="SourceAlpha" type="matrix" values="0 0 0 0 0 0 0 0 0 0 0 0 0 0 0 0 0 0 127 0" result="hardAlpha"/>
<feMorphology radius="4" operator="erode" in="SourceAlpha" result="effect2_dropShadow_2389_18799"/>
<feOffset dy="4"/>
<feGaussianBlur stdDeviation="3"/>
<feComposite in2="hardAlpha" operator="out"/>
<feColorMatrix type="matrix" values="0 0 0 0 0 0 0 0 0 0 0 0 0 0 0 0 0 0 0.06 0"/>
<feBlend mode="normal" in2="effect1_dropShadow_2389_18799" result="effect2_dropShadow_2389_18799"/>
<feBlend mode="normal" in="SourceGraphic" in2="effect2_dropShadow_2389_18799" result="shape"/>
</filter>
<filter id="filter3_dd_2389_18799" x="124" y="71" width="64" height="64" filterUnits="userSpaceOnUse" color-interpolation-filters="sRGB">
<feFlood flood-opacity="0" result="BackgroundImageFix"/>
<feColorMatrix in="SourceAlpha" type="matrix" values="0 0 0 0 0 0 0 0 0 0 0 0 0 0 0 0 0 0 127 0" result="hardAlpha"/>
<feMorphology radius="3" operator="erode" in="SourceAlpha" result="effect1_dropShadow_2389_18799"/>
<feOffset dy="10"/>
<feGaussianBlur stdDeviation="7.5"/>
<feComposite in2="hardAlpha" operator="out"/>
<feColorMatrix type="matrix" values="0 0 0 0 0 0 0 0 0 0 0 0 0 0 0 0 0 0 0.06 0"/>
<feBlend mode="normal" in2="BackgroundImageFix" result="effect1_dropShadow_2389_18799"/>
<feColorMatrix in="SourceAlpha" type="matrix" values="0 0 0 0 0 0 0 0 0 0 0 0 0 0 0 0 0 0 127 0" result="hardAlpha"/>
<feMorphology radius="4" operator="erode" in="SourceAlpha" result="effect2_dropShadow_2389_18799"/>
<feOffset dy="4"/>
<feGaussianBlur stdDeviation="3"/>
<feComposite in2="hardAlpha" operator="out"/>
<feColorMatrix type="matrix" values="0 0 0 0 0 0 0 0 0 0 0 0 0 0 0 0 0 0 0.06 0"/>
<feBlend mode="normal" in2="effect1_dropShadow_2389_18799" result="effect2_dropShadow_2389_18799"/>
<feBlend mode="normal" in="SourceGraphic" in2="effect2_dropShadow_2389_18799" result="shape"/>
</filter>
<clipPath id="clip0_2389_18799">
<rect width="312" height="184" fill="white"/>
</clipPath>
</defs>
</svg>
